<svg id="visual" viewBox="0 0 960 540" width="960" height="540" xmlns="http://www.w3.org/2000/svg" xmlns:xlink="http://www.w3.org/1999/xlink" version="1.1"><rect x="0" y="0" width="960" height="540" fill="#001220"></rect><defs><linearGradient id="grad1_0" x1="43.8%" y1="0%" x2="100%" y2="100%"><stop offset="14.444444444444446%" stop-color="#001220" stop-opacity="1"></stop><stop offset="85.55555555555554%" stop-color="#001220" stop-opacity="1"></stop></linearGradient></defs><defs><linearGradient id="grad2_0" x1="0%" y1="0%" x2="56.3%" y2="100%"><stop offset="14.444444444444446%" stop-color="#001220" stop-opacity="1"></stop><stop offset="85.55555555555554%" stop-color="#001220" stop-opacity="1"></stop></linearGradient></defs><g transform="translate(960, 0)"><path d="M0 486C-66.6 482.3 -133.3 478.7 -186 449C-238.7 419.3 -277.5 363.6 -314.7 314.7C-351.9 265.7 -387.5 223.5 -415.7 172.2C-444 120.9 -465 60.4 -486 0L0 0Z" fill="#b31792"></path></g><g transform="translate(0, 540)"><path d="M0 -486C57 -454.1 114.1 -422.1 162.3 -391.7C210.4 -361.3 249.8 -332.4 301.2 -301.2C352.7 -270 416.2 -236.6 449 -186C481.8 -135.4 483.9 -67.7 486 0L0 0Z" fill="#b31792"></path></g></svg>